<svg xmlns="http://www.w3.org/2000/svg" width="1024" height="1024" viewBox="0 0 1024 1024" version="1.1"><path d="M 504.971 94.750 L 498.500 101.500 505.247 95.032 L 511.995 88.563 517.747 94.032 L 523.500 99.500 518.034 93.750 C 515.028 90.588, 512.315 88, 512.005 88 C 511.696 88, 508.530 91.037, 504.971 94.750 M 505.048 97.452 C 501.531 101, 498.347 103.714, 497.972 103.483 C 497.597 103.251, 496.213 104.285, 494.895 105.781 L 492.500 108.500 495.250 106.076 C 496.762 104.742, 498 104.101, 498 104.651 C 498 105.974, 493.503 110.169, 492.818 109.485 C 492.525 109.192, 491.658 109.750, 490.893 110.726 C 489.626 112.339, 489.659 112.376, 491.250 111.128 C 493.931 109.025, 493.346 110.754, 489.647 115.866 C 476.969 133.390, 466.280 159.989, 463.025 182.113 C 461.385 193.256, 461.564 215.932, 463.378 227 C 465.650 240.860, 470.560 254.640, 477.666 267.098 C 482.351 275.312, 483.196 277.977, 479.855 274 L 477.754 271.500 479.297 274 C 480.145 275.375, 481.276 276.404, 481.809 276.287 C 482.343 276.169, 485.036 279.094, 487.793 282.787 C 490.551 286.479, 494.358 291.282, 496.254 293.459 L 499.701 297.418 500.404 281.959 C 501.316 261.909, 502.486 247.709, 505.548 219.500 C 508.550 191.851, 510.551 176.115, 511.141 175.525 C 511.620 175.047, 515.803 208.158, 519.603 242.500 C 520.942 254.600, 522.326 271.671, 522.680 280.436 L 523.322 296.372 527.703 291.436 C 533.669 284.714, 544.163 269.674, 547.458 263.123 C 552.157 253.781, 556.918 240.198, 559.182 229.672 C 562.431 214.573, 562.422 188.619, 559.163 174.059 C 554.556 153.477, 545.119 131.903, 533.968 116.455 C 527.822 107.942, 526.707 105.741, 529.750 108.128 C 531.341 109.376, 531.374 109.339, 530.107 107.726 C 529.342 106.750, 528.478 106.189, 528.189 106.478 C 527.505 107.162, 524 103.993, 524 102.690 C 524 102.140, 525.013 102.544, 526.250 103.588 C 528.325 105.338, 528.314 105.275, 526.105 102.774 C 524.787 101.282, 523.400 100.253, 523.023 100.486 C 522.645 100.719, 520.140 98.680, 517.456 95.955 C 514.771 93.230, 512.320 91, 512.009 91 C 511.697 91, 508.565 93.903, 505.048 97.452 M 459.343 205.500 C 459.346 209.900, 459.522 211.576, 459.733 209.224 C 459.945 206.872, 459.942 203.272, 459.727 201.224 C 459.512 199.176, 459.339 201.100, 459.343 205.500 M 329.204 224.750 L 329.407 233.500 329.743 225.313 C 330.073 217.279, 330.130 217.118, 332.789 216.712 C 335.264 216.336, 335.217 216.287, 332.250 216.150 L 329 216 329.204 224.750 M 690.961 216.560 C 693.897 217.116, 693.924 217.184, 694.271 224.810 L 694.621 232.500 694.561 224.500 L 694.500 216.500 691.250 216.250 C 688.119 216.009, 688.108 216.020, 690.961 216.560 M 331 224.466 C 331 233.227, 333.512 250.622, 336.449 262.202 C 350.453 317.407, 389.846 353.728, 450.683 367.528 C 456.632 368.878, 462.739 369.986, 464.253 369.991 C 467.005 370, 467.004 369.999, 462.846 366.250 C 460.558 364.188, 450.785 353.275, 441.127 342 C 431.470 330.725, 417.209 314.075, 409.437 304.999 C 401.665 295.924, 394.538 287.861, 393.598 287.082 C 392.659 286.302, 391.398 284.744, 390.796 283.620 C 389.706 281.582, 389.712 281.581, 392.601 283.487 C 394.195 284.538, 401.800 289.189, 409.500 293.821 C 436.829 310.263, 458.338 326.494, 472.373 341.266 C 476.154 345.245, 478.962 347.664, 478.614 346.643 C 478.265 345.621, 476.838 340.221, 475.442 334.643 C 469.453 310.719, 466.158 302.346, 457.372 288.719 C 452.596 281.311, 452.091 280.043, 454.750 282.128 C 456.341 283.376, 456.374 283.339, 455.107 281.726 C 454.342 280.750, 453.483 280.184, 453.200 280.467 C 452.513 281.154, 450 279.023, 450 277.755 C 450 277.205, 450.788 277.373, 451.750 278.128 C 453.329 279.366, 453.368 279.332, 452.154 277.782 C 451.414 276.837, 450.456 276.162, 450.025 276.282 C 449.048 276.554, 432.895 259.438, 433.530 258.803 C 433.784 258.549, 432.756 257.252, 431.246 255.921 L 428.500 253.500 430.924 256.250 C 432.258 257.762, 432.899 259, 432.349 259 C 431.046 259, 426.826 254.508, 427.497 253.836 C 427.780 253.553, 426.997 252.461, 425.756 251.411 L 423.500 249.500 425.405 251.750 C 426.453 252.988, 426.967 254, 426.549 254 C 425.079 254, 417.996 247.815, 418.512 246.981 C 418.798 246.518, 418.506 245.813, 417.862 245.415 C 417.088 244.937, 416.960 245.127, 417.485 245.975 C 418.014 246.831, 417.815 247.105, 416.889 246.796 C 416.125 246.542, 415.500 245.846, 415.500 245.250 C 415.500 244.654, 415.090 243.792, 414.590 243.333 C 414.061 242.849, 413.981 243.024, 414.399 243.750 C 415.529 245.714, 414.186 245.256, 408.131 241.610 C 393.760 232.959, 378.469 226.709, 362.584 222.992 C 355.460 221.326, 335.168 218, 332.122 218 C 331.408 218, 331 220.354, 331 224.466 M 682.500 219.062 C 662.480 221.793, 650.198 224.742, 637.083 229.967 C 624.741 234.884, 611.994 241.869, 602.960 248.665 C 595.024 254.635, 593.502 255.304, 597.076 251.250 L 599.500 248.500 596.754 250.921 C 595.244 252.252, 594.240 253.574, 594.524 253.858 C 595.192 254.525, 587.911 262, 586.594 262 C 586.044 262, 587.373 260.087, 589.546 257.750 L 593.498 253.500 588.792 257.916 C 586.204 260.344, 584.297 262.671, 584.554 263.087 C 585.096 263.964, 572.842 278.175, 572.145 277.478 C 571.889 277.222, 572.539 276.032, 573.589 274.834 C 574.640 273.636, 574.958 272.972, 574.297 273.358 C 573.635 273.745, 572.077 275.509, 570.836 277.280 C 569.320 279.442, 569.141 280.049, 570.289 279.128 C 572.972 276.975, 572.362 278.384, 567.158 286.356 C 560.602 296.399, 554.866 310.505, 550.021 328.500 C 547.800 336.750, 545.357 345.442, 544.592 347.816 L 543.201 352.132 552.350 343.137 C 568.746 327.019, 587.027 312.753, 612.202 296.430 C 621.154 290.625, 629.274 285.157, 630.246 284.278 C 631.217 283.398, 632.230 282.897, 632.496 283.163 C 633 283.667, 628.391 289.116, 611.353 308.159 C 605.772 314.397, 594.130 327.600, 585.480 337.500 C 576.831 347.400, 566.607 358.762, 562.761 362.750 C 554.540 371.273, 554.372 371.190, 572.434 367.533 C 594.847 362.995, 616.485 354.346, 633.511 343.121 C 637.782 340.304, 641.510 338, 641.794 338 C 642.078 338, 641.453 339.012, 640.405 340.250 L 638.500 342.500 640.726 340.616 C 641.951 339.580, 642.743 338.394, 642.487 337.979 C 641.961 337.128, 654.485 325.818, 655.181 326.515 C 655.428 326.761, 657.401 325.065, 659.565 322.745 C 661.729 320.425, 662.263 319.612, 660.750 320.938 C 659.237 322.264, 658 322.899, 658 322.349 C 658 321.026, 662.497 316.831, 663.182 317.515 C 663.475 317.808, 664.342 317.250, 665.107 316.274 C 666.374 314.661, 666.341 314.624, 664.750 315.872 C 662.102 317.949, 662.574 316.895, 667.654 309.382 C 681.699 288.616, 690.594 259.844, 692.585 228.750 L 693.273 218 690.886 218.122 C 689.574 218.189, 685.800 218.612, 682.500 219.062 M 362.500 221.570 C 365.250 222.335, 367.950 222.923, 368.500 222.876 C 370.192 222.731, 361.629 220.153, 359.500 220.166 C 358.400 220.173, 359.750 220.805, 362.500 221.570 M 656.500 221.472 C 651.130 223.242, 653.244 223.311, 659.500 221.570 C 662.250 220.805, 663.600 220.173, 662.500 220.166 C 661.400 220.159, 658.700 220.747, 656.500 221.472 M 468.058 251.315 C 467.971 252.535, 472.214 262.120, 472.648 261.685 C 472.855 261.479, 471.919 258.878, 470.569 255.905 C 469.220 252.932, 468.089 250.867, 468.058 251.315 M 525.675 295.817 L 522.976 298.634 523.250 338.067 L 523.524 377.500 523.762 338.055 L 524 298.609 526.687 295.805 C 528.165 294.262, 529.149 293, 528.874 293 C 528.599 293, 527.160 294.268, 525.675 295.817 M 496.772 297.088 L 499.044 299.675 498.977 339.460 C 498.941 361.341, 499.156 379.489, 499.455 379.789 C 499.755 380.088, 500 362.112, 500 339.841 L 500 299.349 497.250 296.924 L 494.500 294.500 496.772 297.088 M 583 366.500 C 580.525 367.217, 579.400 367.813, 580.500 367.825 C 581.600 367.837, 584.300 367.253, 586.500 366.528 C 591.679 364.821, 588.872 364.799, 583 366.500 M 328.750 386.723 C 330.538 386.945, 333.462 386.945, 335.250 386.723 C 337.038 386.502, 335.575 386.320, 332 386.320 C 328.425 386.320, 326.962 386.502, 328.750 386.723 M 687.250 386.728 C 689.313 386.944, 692.688 386.944, 694.750 386.728 C 696.813 386.513, 695.125 386.336, 691 386.336 C 686.875 386.336, 685.188 386.513, 687.250 386.728 M 524.370 441 C 524.370 446.775, 524.535 449.137, 524.737 446.250 C 524.939 443.363, 524.939 438.637, 524.737 435.750 C 524.535 432.863, 524.370 435.225, 524.370 441 M 563.980 441.750 L 554.500 451.500 564.250 442.020 C 569.612 436.806, 574 432.418, 574 432.270 C 574 431.545, 572.785 432.694, 563.980 441.750 M 459.500 442 C 464.427 446.950, 468.683 451, 468.958 451 C 469.233 451, 465.427 446.950, 460.500 442 C 455.573 437.050, 451.317 433, 451.042 433 C 450.767 433, 454.573 437.050, 459.500 442 M 498.784 474.598 C 498.628 488.127, 498.831 499.715, 499.235 500.348 C 499.639 500.982, 499.976 489.913, 499.985 475.750 C 499.993 461.587, 499.790 450, 499.534 450 C 499.278 450, 498.940 461.069, 498.784 474.598 M 523.409 485.500 C 523.408 494.850, 523.558 498.810, 523.743 494.299 C 523.928 489.789, 523.929 482.139, 523.745 477.299 C 523.562 472.460, 523.410 476.150, 523.409 485.500 M 380 519.500 C 385.203 524.725, 389.685 529, 389.960 529 C 390.235 529, 386.203 524.725, 381 519.500 C 375.797 514.275, 371.315 510, 371.040 510 C 370.765 510, 374.797 514.275, 380 519.500 M 643 520.500 C 638.903 524.625, 635.775 528, 636.050 528 C 636.325 528, 639.903 524.625, 644 520.500 C 648.097 516.375, 651.225 513, 650.950 513 C 650.675 513, 647.097 516.375, 643 520.500 M 596 554 C 592.975 555.598, 590.852 556.927, 591.283 556.953 C 592.346 557.017, 602 552.090, 602 551.483 C 602 550.815, 602.139 550.757, 596 554 M 401 606.563 C 404.508 607.337, 410.794 607.475, 410.357 606.768 C 410.096 606.346, 407.546 606.052, 404.691 606.116 C 401.836 606.180, 400.175 606.381, 401 606.563 M 501.250 638.728 C 503.313 638.944, 506.688 638.944, 508.750 638.728 C 510.813 638.513, 509.125 638.336, 505 638.336 C 500.875 638.336, 499.188 638.513, 501.250 638.728 M 534.667 639.667 C 534.300 640.033, 534 642.310, 534 644.726 C 534 647.973, 533.674 648.922, 532.750 648.367 C 532.030 647.934, 532.136 648.402, 533 649.471 C 534.380 651.179, 534.524 650.875, 534.800 645.663 L 535.100 640 547.041 640 L 558.982 640 559.250 690.750 L 559.519 741.500 559.759 690.250 L 560 639 547.667 639 C 540.883 639, 535.033 639.300, 534.667 639.667 M 587.959 639.733 L 600.920 640.057 601.210 647.899 L 601.500 655.741 603.273 652.121 C 604.431 649.754, 604.535 649.148, 603.573 650.372 C 602.230 652.080, 602.075 651.686, 601.801 645.872 L 601.500 639.500 588.249 639.455 L 574.997 639.409 587.959 639.733 M 661.499 639.734 L 675 640.056 675 689.500 L 675 738.944 661.499 739.266 L 647.997 739.588 661.749 739.544 L 675.500 739.500 675.500 689.500 L 675.500 639.500 661.749 639.456 L 647.997 639.412 661.499 639.734 M 648.463 690 C 648.463 716.675, 648.592 727.587, 648.749 714.250 C 648.907 700.913, 648.907 679.087, 648.749 665.750 C 648.592 652.413, 648.463 663.325, 648.463 690 M 575.485 691.500 L 575.500 739.500 588.920 739.780 C 596.301 739.934, 602.692 739.709, 603.123 739.280 C 603.554 738.851, 597.632 738.636, 589.963 738.803 L 576.019 739.105 575.745 691.303 L 575.470 643.500 575.485 691.500 M 507.768 660.725 C 509.565 660.947, 512.265 660.943, 513.768 660.715 C 515.271 660.486, 513.800 660.304, 510.500 660.310 C 507.200 660.315, 505.971 660.502, 507.768 660.725 M 392.199 711.744 C 396.984 711.927, 405.084 711.928, 410.199 711.746 C 415.315 711.564, 411.400 711.414, 401.500 711.413 C 391.600 711.412, 387.415 711.561, 392.199 711.744 M 500.768 735.725 C 502.565 735.947, 505.265 735.943, 506.768 735.715 C 508.271 735.486, 506.800 735.304, 503.500 735.310 C 500.200 735.315, 498.971 735.502, 500.768 735.725 M 357 737.306 C 357 738.734, 355.163 738.985, 342.750 739.252 L 328.500 739.559 342.781 739.780 C 354.867 739.966, 357.154 739.763, 357.655 738.457 C 357.981 737.608, 357.966 736.633, 357.624 736.290 C 357.281 735.947, 357 736.404, 357 737.306 M 456 737.833 C 456 738.655, 451.935 739.065, 442.250 739.218 L 428.500 739.437 441.920 739.749 C 454.350 740.037, 458.669 739.336, 456.683 737.350 C 456.308 736.974, 456 737.192, 456 737.833 M 526.924 750.632 C 525.591 752.079, 522.700 754.095, 520.500 755.110 C 518.300 756.125, 517.085 756.966, 517.800 756.978 C 519.976 757.015, 524.337 754.350, 527.437 751.089 C 529.052 749.390, 530.143 748, 529.861 748 C 529.579 748, 528.258 749.184, 526.924 750.632 M 215.768 754.725 C 217.565 754.947, 220.265 754.943, 221.768 754.715 C 223.271 754.486, 221.800 754.304, 218.500 754.310 C 215.200 754.315, 213.971 754.502, 215.768 754.725 M 843.724 766.652 C 845.878 767.117, 845.957 767.579, 846.265 781.567 L 846.583 796.002 846.542 781.251 L 846.500 766.500 844 766.336 C 841.848 766.195, 841.810 766.239, 843.724 766.652 M 819.389 785.500 C 819.390 792.650, 819.550 795.444, 819.742 791.708 C 819.935 787.973, 819.934 782.123, 819.739 778.708 C 819.545 775.294, 819.387 778.350, 819.389 785.500 M 403.447 797.732 L 414.898 798.063 415.286 803.037 L 415.674 808.011 415.587 802.756 L 415.500 797.500 403.748 797.450 L 391.997 797.400 403.447 797.732 M 504.206 797.741 C 507.895 797.932, 514.195 797.934, 518.206 797.743 C 522.218 797.553, 519.200 797.396, 511.500 797.395 C 503.800 797.393, 500.518 797.549, 504.206 797.741 M 389.462 845 C 389.462 871.125, 389.591 881.813, 389.749 868.750 C 389.907 855.688, 389.907 834.313, 389.749 821.250 C 389.591 808.188, 389.462 818.875, 389.462 845 M 803.355 808.500 C 803.352 813.450, 803.521 815.601, 803.731 813.280 C 803.940 810.959, 803.943 806.909, 803.736 804.280 C 803.530 801.651, 803.358 803.550, 803.355 808.500 M 819.431 840.500 C 819.432 853.700, 819.574 858.962, 819.747 852.193 C 819.921 845.424, 819.920 834.624, 819.746 828.193 C 819.572 821.762, 819.431 827.300, 819.431 840.500 M 846.400 834.500 C 846.401 842.750, 846.556 845.992, 846.744 841.704 C 846.932 837.417, 846.931 830.667, 846.742 826.704 C 846.552 822.742, 846.399 826.250, 846.400 834.500 M 669 832.873 C 669 833.785, 664.112 834.009, 648.999 833.790 C 637.998 833.631, 628.998 833.837, 628.999 834.250 C 629.001 835.473, 668.782 835.162, 669.541 833.933 C 669.904 833.347, 669.930 832.597, 669.600 832.267 C 669.270 831.937, 669 832.210, 669 832.873 M 417.439 865 C 417.439 880.125, 417.578 886.313, 417.748 878.750 C 417.917 871.188, 417.917 858.813, 417.748 851.250 C 417.578 843.688, 417.439 849.875, 417.439 865 M 454.439 865 C 454.439 880.125, 454.578 886.313, 454.748 878.750 C 454.917 871.188, 454.917 858.813, 454.748 851.250 C 454.578 843.688, 454.439 849.875, 454.439 865 M 481.439 865 C 481.439 880.125, 481.578 886.313, 481.748 878.750 C 481.917 871.188, 481.917 858.813, 481.748 851.250 C 481.578 843.688, 481.439 849.875, 481.439 865 M 377.320 845 C 377.320 848.575, 377.502 850.038, 377.723 848.250 C 377.945 846.462, 377.945 843.538, 377.723 841.750 C 377.502 839.962, 377.320 841.425, 377.320 845 M 603.349 847 C 603.349 851.675, 603.522 853.587, 603.732 851.250 C 603.943 848.913, 603.943 845.087, 603.732 842.750 C 603.522 840.413, 603.349 842.325, 603.349 847 M 706.355 847.500 C 706.352 852.450, 706.521 854.601, 706.731 852.280 C 706.940 849.959, 706.943 845.909, 706.736 843.280 C 706.530 840.651, 706.358 842.550, 706.355 847.500 M 563.431 866.500 C 563.432 879.700, 563.574 884.962, 563.747 878.193 C 563.921 871.424, 563.920 860.624, 563.746 854.193 C 563.572 847.762, 563.431 853.300, 563.431 866.500 M 695.175 847.736 L 695 852.972 662.750 853.250 L 630.500 853.529 662.781 853.764 C 698.699 854.027, 696.418 854.504, 695.738 846.864 C 695.353 842.538, 695.348 842.546, 695.175 847.736 M 846.328 860.500 C 846.333 864.350, 846.513 865.802, 846.730 863.728 C 846.946 861.653, 846.943 858.503, 846.722 856.728 C 846.501 854.952, 846.324 856.650, 846.328 860.500 M 216 872.049 C 218.507 872.803, 232.699 873.323, 231.917 872.632 C 231.688 872.430, 227.450 872.047, 222.500 871.781 C 217.550 871.515, 214.625 871.635, 216 872.049 M 590.336 885 C 590.336 889.125, 590.513 890.813, 590.728 888.750 C 590.944 886.688, 590.944 883.313, 590.728 881.250 C 590.513 879.188, 590.336 880.875, 590.336 885 M 322.728 896.722 C 324.503 896.943, 327.653 896.946, 329.728 896.730 C 331.802 896.513, 330.350 896.333, 326.500 896.328 C 322.650 896.324, 320.952 896.501, 322.728 896.722 M 648.250 896.728 C 650.313 896.944, 653.688 896.944, 655.750 896.728 C 657.813 896.513, 656.125 896.336, 652 896.336 C 647.875 896.336, 646.188 896.513, 648.250 896.728 M 752.776 896.733 C 755.128 896.945, 758.728 896.942, 760.776 896.727 C 762.824 896.512, 760.900 896.339, 756.500 896.343 C 752.100 896.346, 750.424 896.522, 752.776 896.733" stroke="none" fill="#6a9264" fill-rule="evenodd"/><path d="M 503.784 96.831 C 475.550 126.383, 460.044 164.583, 460.008 204.678 C 459.980 236.753, 471.150 265.781, 493.903 292.755 L 500.023 300.011 499.761 340.181 L 499.500 380.351 495.600 373.925 C 493.455 370.391, 489.263 363.608, 486.284 358.851 C 481.438 351.112, 480.410 348.429, 476.515 333.351 C 471.160 312.625, 469.123 306.763, 463.908 297.081 C 455.079 280.689, 443.275 266.461, 428.764 254.722 C 402.918 233.811, 375.320 222.004, 343.026 218.040 C 328.878 216.303, 330 215.663, 330 225.470 C 330 243.608, 335.346 268.454, 343.112 286.403 C 362.066 330.214, 402.094 359.851, 456 369.985 C 462.325 371.174, 468.465 372.335, 469.644 372.566 C 472.505 373.125, 483.875 388.502, 488.875 398.575 C 497.970 416.897, 498.870 422.577, 499.556 466 L 500.117 501.500 494.560 490.678 C 484.490 471.065, 475.718 458.748, 461.063 443.643 C 428.167 409.736, 385.173 390.291, 336.233 387.185 L 325 386.472 325 391.486 C 325.001 404.402, 331.820 435.534, 338.694 454 C 352.081 489.965, 377.338 521.642, 409.918 543.326 C 442.737 565.170, 485.493 576.215, 525.327 573.138 C 579.420 568.960, 627.902 543.143, 659.211 501.843 C 672.455 484.373, 679.663 470.777, 687.228 449 C 693.341 431.403, 699 403.886, 699 391.759 L 699 386.486 685.994 387.219 C 621.244 390.869, 561.754 429.111, 532.714 485.754 C 530.248 490.564, 527.166 497.425, 525.865 501 L 523.500 507.500 523.221 497 C 522.878 484.104, 524.640 428.002, 525.560 422.505 C 528.101 407.334, 544.538 375.772, 551.348 372.989 C 552.531 372.505, 558 371.384, 563.500 370.499 C 618.725 361.610, 656.888 336.224, 677.748 294.500 C 687.540 274.915, 692.269 255.480, 693.663 229.107 L 694.317 216.714 685.910 217.447 C 650.399 220.545, 617.943 233.411, 594.448 253.705 C 568.007 276.543, 556.301 296.557, 546.098 336.370 C 544.425 342.899, 542.201 349.649, 541.155 351.370 C 540.110 353.092, 536.678 358.775, 533.529 364 C 530.379 369.225, 526.992 374.400, 526.001 375.500 C 525.010 376.600, 523.982 378.400, 523.716 379.500 C 523.450 380.600, 523.180 362.919, 523.116 340.208 L 523 298.916 529.576 291.376 C 552.105 265.544, 563.385 235.150, 563.304 200.500 C 563.233 170.102, 552.206 138.736, 531.992 111.437 C 525.188 102.248, 513.394 89, 512.018 89 C 511.604 89, 507.899 92.524, 503.784 96.831 M 503.273 99.393 C 482.195 121.661, 467.465 151.934, 463.025 182.113 C 461.385 193.256, 461.564 215.932, 463.378 227 C 467.168 250.122, 478.470 272.962, 496.264 293.459 L 499.701 297.418 500.404 281.959 C 501.316 261.909, 502.486 247.709, 505.548 219.500 C 508.550 191.851, 510.551 176.115, 511.141 175.525 C 511.620 175.047, 515.803 208.158, 519.603 242.500 C 520.942 254.600, 522.326 271.671, 522.680 280.436 L 523.322 296.372 527.703 291.436 C 533.669 284.714, 544.163 269.674, 547.458 263.123 C 552.157 253.781, 556.918 240.198, 559.182 229.672 C 562.431 214.573, 562.422 188.619, 559.163 174.059 C 554.389 152.731, 545.310 132.322, 532.771 114.731 C 525.779 104.922, 513.586 91, 511.988 91 C 511.564 91, 507.643 94.777, 503.273 99.393 M 331 224.466 C 331 233.227, 333.512 250.622, 336.449 262.202 C 350.453 317.407, 389.846 353.728, 450.683 367.528 C 456.632 368.878, 462.739 369.986, 464.253 369.991 C 467.005 370, 467.004 369.999, 462.846 366.250 C 460.558 364.188, 450.785 353.275, 441.127 342 C 431.470 330.725, 417.209 314.075, 409.437 304.999 C 401.665 295.924, 394.538 287.861, 393.598 287.082 C 392.659 286.302, 391.398 284.744, 390.796 283.620 C 389.706 281.582, 389.712 281.581, 392.601 283.487 C 394.195 284.538, 401.800 289.189, 409.500 293.821 C 436.829 310.263, 458.338 326.494, 472.373 341.266 C 476.154 345.245, 478.962 347.664, 478.614 346.643 C 478.265 345.621, 476.838 340.221, 475.442 334.643 C 469.125 309.409, 465.724 301.160, 455.156 285.439 C 434.853 255.236, 400.048 231.757, 362.584 222.992 C 355.460 221.326, 335.168 218, 332.122 218 C 331.408 218, 331 220.354, 331 224.466 M 682.500 219.062 C 662.438 221.799, 650.199 224.741, 636.985 230.006 C 608.101 241.513, 584.189 260.614, 568.028 285.088 C 560.704 296.178, 555.058 309.790, 550.021 328.500 C 547.800 336.750, 545.357 345.442, 544.592 347.816 L 543.201 352.132 552.350 343.137 C 568.746 327.019, 587.027 312.753, 612.202 296.430 C 621.154 290.625, 629.274 285.157, 630.246 284.278 C 631.217 283.398, 632.230 282.897, 632.496 283.163 C 633 283.667, 628.391 289.116, 611.353 308.159 C 605.772 314.397, 594.130 327.600, 585.480 337.500 C 576.831 347.400, 566.607 358.762, 562.761 362.750 C 554.540 371.273, 554.372 371.190, 572.434 367.533 C 622.765 357.342, 659.066 331.173, 677.393 291.871 C 686.012 273.388, 691.074 252.356, 692.585 228.750 L 693.273 218 690.886 218.122 C 689.574 218.189, 685.800 218.612, 682.500 219.062 M 655.500 600.861 C 650.136 604.174, 648.653 606.647, 648.190 613.049 C 647.825 618.094, 648.120 619.551, 650.083 622.417 C 653.388 627.239, 656.911 629, 663.256 629 C 669.719 629, 674.306 626.364, 677.148 621.016 C 680.774 614.192, 678.572 605.735, 672.001 601.250 C 667.782 598.370, 659.835 598.183, 655.500 600.861 M 377.364 607.221 C 377.071 607.694, 374.890 613.350, 372.516 619.790 C 370.142 626.231, 364.292 642.075, 359.515 655 C 354.738 667.925, 349.329 682.775, 347.495 688 C 340.013 709.315, 329.764 736.578, 328.792 737.750 C 327.971 738.740, 330.764 739, 342.229 739 L 356.703 739 361.002 726.250 C 363.367 719.237, 365.666 713.025, 366.111 712.445 C 366.634 711.764, 376.096 711.309, 392.814 711.161 L 418.707 710.932 421.311 718.216 C 422.743 722.222, 424.873 728.538, 426.044 732.250 L 428.173 739 442.087 739 C 449.739 739, 455.996 738.663, 455.991 738.250 C 455.985 737.837, 452.886 728.725, 449.103 718 C 442.329 698.796, 411.297 610.567, 410.545 608.375 C 409.818 606.258, 378.629 605.173, 377.364 607.221 M 390.463 638.809 C 388.953 644.420, 376.511 682.159, 374.570 687.019 C 374.040 688.347, 376.237 688.525, 391.988 688.430 C 401.901 688.370, 410.169 688.136, 410.360 687.911 C 410.551 687.685, 406.558 675.039, 401.486 659.809 L 392.265 632.117 390.463 638.809 M 492 640.360 C 481.179 643.306, 470.027 652.147, 465.202 661.605 C 459.300 673.173, 457.931 690.797, 461.908 704 C 468.315 725.271, 484.157 736.030, 507.282 734.816 C 514.307 734.447, 516.960 733.802, 522.343 731.152 C 525.936 729.383, 530.086 726.498, 531.564 724.742 L 534.251 721.549 533.816 731.524 C 533.321 742.882, 531.491 747.606, 525.572 752.803 C 520.604 757.164, 515.352 758.334, 503.500 757.718 C 496.016 757.328, 491.739 756.527, 486.500 754.533 C 476.378 750.681, 476.002 750.595, 475.982 752.133 C 475.971 752.885, 474.407 756.875, 472.505 761 C 468.528 769.625, 468.406 769.339, 477.901 773.600 C 487.894 778.084, 494.620 779.344, 509 779.424 C 520.648 779.490, 523.497 779.173, 529.766 777.119 C 543.761 772.534, 553.046 763.276, 557.015 749.950 C 558.883 743.676, 559 740.250, 559 691.642 L 559 640 547 640 L 535 640 535 645.567 L 535 651.134 530.750 647.718 C 525.870 643.795, 521.942 641.594, 517.101 640.070 C 512.592 638.651, 497.645 638.823, 492 640.360 M 614.500 641.377 C 608.887 644.024, 606.182 646.661, 603.105 652.485 L 601 656.470 601 648.235 L 601 640 587.875 640 L 574.750 640 575.375 643.125 C 575.719 644.844, 576 667.119, 576 692.625 L 576 739 589.500 739 L 603 739 603.022 708.250 C 603.042 680.494, 603.224 677.111, 604.890 673.500 C 607.026 668.872, 610.312 665.583, 614.315 664.067 C 618.411 662.515, 625.214 662.761, 627.774 664.554 C 629.853 666.010, 630.055 665.963, 630.973 663.804 C 631.512 662.537, 632.886 657.675, 634.026 653 C 635.166 648.325, 636.316 643.762, 636.582 642.859 C 637.829 638.627, 622.512 637.599, 614.500 641.377 M 648.500 689.500 L 648.500 739 661.750 739 L 675 739 675 689.500 L 675 640 661.750 640 L 648.500 640 648.500 689.500 M 500.310 662.436 C 494.426 665.175, 489.631 670.944, 487.903 677.361 C 487.303 679.589, 486.967 685.046, 487.156 689.486 C 487.793 704.434, 494.898 713.017, 507.286 713.806 C 515.435 714.324, 520.672 712.829, 525.661 708.558 C 531.301 703.731, 534.296 696.444, 534.318 687.500 C 534.342 677.437, 532.697 672.711, 527.195 667.040 C 519.942 659.563, 510.101 657.878, 500.310 662.436 M 216 754.996 C 200.879 756.429, 189.099 761.983, 178.380 772.733 C 164.138 787.017, 157.773 803.944, 157.787 827.500 C 157.803 856.144, 169.981 877.960, 192.058 888.894 C 216.208 900.854, 248.017 896.632, 267.430 878.890 C 270.494 876.090, 273 873.388, 273 872.886 C 273 871.224, 264.553 859, 263.405 859 C 262.786 859, 260.529 860.188, 258.390 861.641 C 253.492 864.967, 244.714 869.365, 239.500 871.107 C 232.960 873.292, 216.584 872.865, 209.832 870.334 C 198.218 865.980, 191.244 858.960, 187.297 847.649 C 185.002 841.073, 184.711 814.816, 186.863 808.500 C 191.668 794.400, 199.266 784.609, 208.814 780.213 C 216.602 776.628, 229.116 776.508, 236.277 779.950 C 244.406 783.856, 251 794.012, 251 802.622 C 251 803.865, 251.390 805.123, 251.867 805.418 C 252.800 805.994, 266.202 803.830, 272.949 802.014 C 277.019 800.918, 277.064 800.856, 276.433 797.202 C 274.158 784.018, 269.800 774.624, 262.799 767.804 C 251.953 757.240, 236.618 753.043, 216 754.996 M 833 769.091 C 828.325 770.142, 823.487 771.235, 822.250 771.520 C 820.059 772.025, 820 772.377, 820 785.019 L 820 798 812 798 L 804 798 804 808.076 L 804 818.152 811.926 817.826 L 819.853 817.500 820.261 847 C 820.520 865.790, 821.096 877.813, 821.845 880.118 C 823.713 885.865, 827.225 890.302, 832.039 893 C 836.049 895.247, 837.612 895.499, 847.500 895.489 C 856.801 895.480, 859.264 895.128, 863.445 893.209 C 869.805 890.291, 875 886.316, 875 884.370 C 875 882.939, 870.222 870.061, 869.308 869.029 C 869.079 868.770, 868.578 869.051, 868.196 869.653 C 866.419 872.450, 860.314 874.993, 855.365 874.996 C 850.880 875, 849.994 874.652, 848.365 872.250 C 846.687 869.776, 846.469 866.920, 846.189 843.780 L 845.878 818.061 858.689 817.780 L 871.500 817.500 871.799 810.012 C 872.303 797.356, 873.018 798, 858.481 798 L 846 798 846 782.500 C 846 764.494, 847.333 765.869, 833 769.091 M 317 796.126 C 300.946 798.729, 286.714 811.340, 280.899 828.113 C 277.637 837.524, 277.576 855.861, 280.776 865 C 286.007 879.939, 298.486 891.192, 313.536 894.540 C 323.974 896.862, 338.286 896.148, 346 892.920 C 362.313 886.094, 372.059 874.654, 375.535 858.251 C 379.649 838.837, 375.159 820.967, 363.189 809.107 C 351.437 797.464, 335.817 793.074, 317 796.126 M 437.297 795.985 C 434.985 796.477, 432.060 797.413, 430.797 798.065 C 426.095 800.492, 418.053 807.257, 417.390 809.342 C 416.718 811.455, 416.688 811.458, 415.922 809.500 C 415.492 808.400, 415.109 805.362, 415.070 802.750 L 415 798 402.500 798 L 390 798 390 845 L 390 892 403.411 892 L 416.822 892 417.193 862.250 C 417.590 830.283, 417.955 827.891, 423.298 822.169 C 429.818 815.185, 441.601 814.559, 448.373 820.837 C 454.103 826.148, 454.353 827.717, 454.801 861.250 L 455.212 892 468.106 892 L 481 892 480.985 859.750 C 480.970 825.773, 480.336 819.499, 476.077 811.150 C 473.620 806.334, 466.993 800.327, 461.415 797.859 C 456.399 795.641, 443.587 794.645, 437.297 795.985 M 546.267 795.991 C 539.747 797.375, 534.982 800.011, 529.570 805.228 C 526.847 807.852, 524.592 810.001, 524.559 810.002 C 524.527 810.003, 524.652 807.303, 524.839 804.002 L 525.178 798 511.589 798 L 498 798 498 845 L 498 892 512 892 L 526 892 526 862.114 L 526 832.228 528.764 826.937 C 532.274 820.219, 537.762 817, 545.707 817 C 551.560 817, 555.307 818.495, 558.627 822.155 C 562.916 826.884, 563.387 830.801, 563.445 862.247 L 563.500 891.994 576.849 891.997 L 590.198 892 589.766 858.250 C 589.366 827.045, 589.171 824.003, 587.174 817.903 C 582.597 803.924, 572.577 796.249, 557.894 795.480 C 553.827 795.267, 548.595 795.497, 546.267 795.991 M 642.135 795.965 C 624.126 798.799, 608.593 814.521, 605.092 833.458 C 603.690 841.045, 603.694 853.430, 605.102 860.201 C 608.678 877.402, 621.288 890.499, 638.087 894.459 C 661.377 899.949, 684.570 891.469, 693.394 874.237 C 695.030 871.042, 695.017 870.957, 692.751 870.095 C 691.478 869.611, 688.397 868.257, 685.905 867.085 L 681.373 864.955 677.242 868.885 C 667.220 878.418, 648.342 879.920, 638.258 871.988 C 633.718 868.417, 629 859.318, 629 854.134 C 629 853.312, 638.067 853, 662 853 L 695 853 695.162 847.750 C 695.817 826.556, 691.952 814.487, 681.611 805.441 C 672.262 797.263, 657.069 793.616, 642.135 795.965 M 746.500 795.969 C 722.157 800.070, 707 819.855, 707 847.529 C 707 862.218, 711.299 873.429, 720.435 882.565 C 729.473 891.603, 741.186 895.957, 756.540 895.985 C 771.088 896.012, 782.896 891.254, 791.241 882 C 794.932 877.908, 799.966 868.985, 799.990 866.493 C 799.996 865.939, 796.737 864.539, 792.750 863.383 C 788.763 862.227, 784.743 860.956, 783.818 860.559 C 782.579 860.028, 781.731 860.620, 780.604 862.799 C 774.057 875.459, 759.219 880.575, 746.383 874.598 C 737.465 870.445, 733 861.405, 733 847.500 C 733 830.175, 740.944 818.506, 754.204 816.354 C 758.440 815.667, 764.718 817.322, 768.974 820.248 C 772.322 822.550, 777 829.779, 777 832.652 C 777 834.394, 777.169 834.379, 790.521 831.444 C 800.395 829.274, 800.301 829.375, 798.398 822.968 C 795.760 814.087, 787.961 804.618, 779.810 800.401 C 772.055 796.389, 756.385 794.304, 746.500 795.969 M 322.275 816.934 C 311.317 819.664, 305.017 829.343, 304.215 844.682 C 303.419 859.901, 307.932 870.198, 317.314 874.566 C 329.621 880.296, 342.445 875.272, 348.118 862.500 C 352.606 852.396, 351.623 835.528, 346.033 826.712 C 341.187 819.072, 330.820 814.805, 322.275 816.934 M 642.247 817.279 C 636.273 819.543, 632.176 824.567, 629.545 832.858 L 628.852 835.042 649.176 834.771 L 669.500 834.500 669.175 831.500 C 668.204 822.525, 661.526 816.743, 651.633 816.313 C 648.260 816.167, 644.036 816.601, 642.247 817.279" stroke="none" fill="#485b3c" fill-rule="evenodd"/></svg>